<svg xmlns="http://www.w3.org/2000/svg" xmlns:xlink="http://www.w3.org/1999/xlink" width="500" zoomAndPan="magnify" viewBox="0 0 375 374.999991" height="500" preserveAspectRatio="xMidYMid meet" version="1.0"><defs><g/><clipPath id="5447dcdc8b"><path d="M 0 175.144531 L 375 175.144531 L 375 199.855469 L 0 199.855469 Z M 0 175.144531 " clip-rule="nonzero"/></clipPath></defs><g fill="#000000" fill-opacity="1"><g transform="translate(80.14453, 225.107827)"><g><path d="M 7.921875 0 L 7.921875 -77 L 15.40625 -77 L 43.671875 -20.6875 L 71.9375 -77 L 79.421875 -77 L 79.421875 0 L 72.484375 0 L 72.484375 -64.234375 L 47.40625 -14.40625 L 39.9375 -14.40625 L 14.84375 -64.234375 L 14.84375 0 Z M 7.921875 0 "/></g></g></g><g fill="#000000" fill-opacity="1"><g transform="translate(168.358274, 225.107827)"><g><path d="M 28.375 0 L 7.703125 0 L 7.703125 -5.28125 L 14.296875 -6.046875 L 14.296875 -70.84375 L 8.25 -71.609375 L 8.25 -77 L 27.828125 -77 L 27.828125 -71.609375 L 21.78125 -70.84375 L 21.78125 -6.046875 L 28.375 -5.28125 Z M 28.375 0 "/></g></g></g><g fill="#000000" fill-opacity="1"><g transform="translate(206.635554, 225.107827)"><g><path d="M 7.921875 0 L 7.921875 -77 L 15.40625 -77 L 43.671875 -20.6875 L 71.9375 -77 L 79.421875 -77 L 79.421875 0 L 72.484375 0 L 72.484375 -64.234375 L 47.40625 -14.40625 L 39.9375 -14.40625 L 14.84375 -64.234375 L 14.84375 0 Z M 7.921875 0 "/></g></g></g><g clip-path="url(#5447dcdc8b)"><path fill="#ffffff" d="M 0 175.144531 L 374.746094 175.144531 L 374.746094 199.660156 L 0 199.660156 Z M 0 175.144531 " fill-opacity="1" fill-rule="nonzero"/></g><g fill="#304945" fill-opacity="1"><g transform="translate(71.79454, 191.27555)"><g><path d="M 1.902344 -1.945312 L 5.023438 -1.945312 L 5.761719 0 L 6.949219 0 L 3.859375 -7.796875 L 3.046875 -7.796875 L -0.0429688 0 L 1.15625 0 Z M 4.617188 -2.992188 L 2.308594 -2.992188 L 3.464844 -6.023438 Z M 4.617188 -2.992188 "/></g></g></g><g fill="#304945" fill-opacity="1"><g transform="translate(87.563633, 191.27555)"><g/></g></g><g fill="#304945" fill-opacity="1"><g transform="translate(99.100713, 191.27555)"><g><path d="M 2.398438 -6.71875 L 2.398438 0 L 3.507812 0 L 3.507812 -6.71875 L 5.828125 -6.71875 L 5.828125 -7.773438 L 0.0664062 -7.773438 L 0.0664062 -6.71875 Z M 2.398438 -6.71875 "/></g></g></g><g fill="#304945" fill-opacity="1"><g transform="translate(113.803561, 191.27555)"><g><path d="M 0.386719 -3.847656 C 0.386719 -1.628906 2.15625 0.144531 4.375 0.144531 C 6.597656 0.144531 8.378906 -1.628906 8.378906 -3.847656 C 8.378906 -6.070312 6.597656 -7.851562 4.375 -7.851562 C 2.15625 -7.851562 0.386719 -6.070312 0.386719 -3.847656 Z M 1.527344 -3.847656 C 1.527344 -5.429688 2.792969 -6.707031 4.375 -6.707031 C 5.960938 -6.707031 7.234375 -5.429688 7.234375 -3.847656 C 7.234375 -2.265625 5.960938 -1 4.375 -1 C 2.792969 -1 1.527344 -2.265625 1.527344 -3.847656 Z M 1.527344 -3.847656 "/></g></g></g><g fill="#304945" fill-opacity="1"><g transform="translate(131.441336, 191.27555)"><g><path d="M 3.75 -3.902344 L 2.453125 -3.902344 L 2.453125 -3.375 L 5.253906 0 L 6.695312 0 L 4.265625 -2.890625 C 5.585938 -3.121094 6.257812 -4.15625 6.257812 -5.246094 C 6.257812 -6.464844 5.421875 -7.796875 3.75 -7.796875 L 0.945312 -7.796875 L 0.945312 0 L 2.046875 0 L 2.046875 -6.675781 L 3.75 -6.675781 C 4.683594 -6.675781 5.144531 -5.90625 5.144531 -5.246094 C 5.144531 -4.574219 4.683594 -3.902344 3.75 -3.902344 Z M 3.75 -3.902344 "/></g></g></g><g fill="#304945" fill-opacity="1"><g transform="translate(146.79272, 191.27555)"><g><path d="M 3.75 -3.902344 L 2.453125 -3.902344 L 2.453125 -3.375 L 5.253906 0 L 6.695312 0 L 4.265625 -2.890625 C 5.585938 -3.121094 6.257812 -4.15625 6.257812 -5.246094 C 6.257812 -6.464844 5.421875 -7.796875 3.75 -7.796875 L 0.945312 -7.796875 L 0.945312 0 L 2.046875 0 L 2.046875 -6.675781 L 3.75 -6.675781 C 4.683594 -6.675781 5.144531 -5.90625 5.144531 -5.246094 C 5.144531 -4.574219 4.683594 -3.902344 3.75 -3.902344 Z M 3.75 -3.902344 "/></g></g></g><g fill="#304945" fill-opacity="1"><g transform="translate(162.144104, 191.27555)"><g><path d="M 5.640625 -1.109375 L 2.066406 -1.109375 L 2.066406 -3.375 L 5.550781 -3.375 L 5.550781 -4.496094 L 2.066406 -4.496094 L 2.066406 -6.664062 L 5.628906 -6.664062 L 5.628906 -7.773438 L 0.945312 -7.773438 L 0.945312 0 L 5.640625 0 Z M 5.640625 -1.109375 "/></g></g></g><g fill="#304945" fill-opacity="1"><g transform="translate(177.077796, 191.27555)"><g><path d="M 0.945312 -7.695312 L 0.945312 0 L 2.054688 0 L 2.054688 -5.375 L 5.773438 0 L 6.652344 0 L 6.652344 -7.695312 L 5.550781 -7.695312 L 5.550781 -2.277344 L 1.804688 -7.695312 Z M 0.945312 -7.695312 "/></g></g></g><g fill="#304945" fill-opacity="1"><g transform="translate(193.473448, 191.27555)"><g><path d="M 2.398438 -6.71875 L 2.398438 0 L 3.507812 0 L 3.507812 -6.71875 L 5.828125 -6.71875 L 5.828125 -7.773438 L 0.0664062 -7.773438 L 0.0664062 -6.71875 Z M 2.398438 -6.71875 "/></g></g></g><g fill="#304945" fill-opacity="1"><g transform="translate(208.176289, 191.27555)"><g/></g></g><g fill="#304945" fill-opacity="1"><g transform="translate(219.713375, 191.27555)"><g><path d="M 0.429688 -3.828125 C 0.429688 -2.757812 0.890625 -1.78125 1.550781 -1.078125 C 2.222656 -0.375 3.1875 0.0546875 4.234375 0.0546875 C 6.023438 0.0546875 7.433594 -1.132812 7.871094 -2.878906 L 6.785156 -2.878906 C 6.386719 -1.714844 5.398438 -1.042969 4.234375 -1.042969 C 3.496094 -1.042969 2.757812 -1.351562 2.277344 -1.859375 C 1.792969 -2.363281 1.507812 -3.054688 1.507812 -3.828125 C 1.507812 -4.617188 1.804688 -5.300781 2.285156 -5.804688 C 2.769531 -6.3125 3.496094 -6.664062 4.234375 -6.664062 C 5.367188 -6.664062 6.3125 -6.046875 6.71875 -4.894531 L 7.816406 -4.894531 C 7.378906 -6.628906 5.992188 -7.761719 4.234375 -7.761719 C 3.1875 -7.761719 2.1875 -7.277344 1.515625 -6.585938 C 0.859375 -5.882812 0.429688 -4.914062 0.429688 -3.828125 Z M 0.429688 -3.828125 "/></g></g></g><g fill="#304945" fill-opacity="1"><g transform="translate(236.801531, 191.27555)"><g><path d="M 5.671875 -1.109375 L 2.054688 -1.109375 L 2.054688 -7.695312 L 0.945312 -7.695312 L 0.945312 0 L 5.671875 0 Z M 5.671875 -1.109375 "/></g></g></g><g fill="#304945" fill-opacity="1"><g transform="translate(251.3285, 191.27555)"><g><path d="M 3.484375 -6.738281 L 4.914062 -6.738281 L 4.914062 -7.761719 L 0.945312 -7.761719 L 0.945312 -6.738281 L 2.375 -6.738281 L 2.375 -1.035156 L 0.945312 -1.035156 L 0.945312 0 L 4.914062 0 L 4.914062 -1.035156 L 3.484375 -1.035156 Z M 3.484375 -6.738281 "/></g></g></g><g fill="#304945" fill-opacity="1"><g transform="translate(265.976388, 191.27555)"><g><path d="M 5.640625 -1.109375 L 2.066406 -1.109375 L 2.066406 -3.375 L 5.550781 -3.375 L 5.550781 -4.496094 L 2.066406 -4.496094 L 2.066406 -6.664062 L 5.628906 -6.664062 L 5.628906 -7.773438 L 0.945312 -7.773438 L 0.945312 0 L 5.640625 0 Z M 5.640625 -1.109375 "/></g></g></g><g fill="#304945" fill-opacity="1"><g transform="translate(280.91008, 191.27555)"><g><path d="M 0.945312 -7.695312 L 0.945312 0 L 2.054688 0 L 2.054688 -5.375 L 5.773438 0 L 6.652344 0 L 6.652344 -7.695312 L 5.550781 -7.695312 L 5.550781 -2.277344 L 1.804688 -7.695312 Z M 0.945312 -7.695312 "/></g></g></g><g fill="#304945" fill-opacity="1"><g transform="translate(297.305731, 191.27555)"><g><path d="M 2.398438 -6.71875 L 2.398438 0 L 3.507812 0 L 3.507812 -6.71875 L 5.828125 -6.71875 L 5.828125 -7.773438 L 0.0664062 -7.773438 L 0.0664062 -6.71875 Z M 2.398438 -6.71875 "/></g></g></g></svg>